<?xml version="1.0" encoding="utf-8"?>
<!-- Generator: Adobe Illustrator 28.1.0, SVG Export Plug-In . SVG Version: 6.00 Build 0)  -->
<svg version="1.1" id="Layer_1" xmlns="http://www.w3.org/2000/svg" xmlns:xlink="http://www.w3.org/1999/xlink" x="0px" y="0px"
	 viewBox="0 0 349.3 121.5" enable-background="new 0 0 349.3 121.5" xml:space="preserve">
<linearGradient id="SVGID_1_" gradientUnits="userSpaceOnUse" x1="264.4682" y1="60.071" x2="321.9155" y2="60.071">
	<stop  offset="0" style="stop-color:#A96972"/>
	<stop  offset="1" style="stop-color:#E32026"/>
</linearGradient>
<polygon fill="url(#SVGID_1_)" points="279.4,91.9 279.4,13.3 264.5,13.3 264.5,103.2 269.2,103.2 269.2,106.8 321.9,106.8 
	321.9,91.9 "/>
<linearGradient id="SVGID_00000062889473126850981270000001665376591208247980_" gradientUnits="userSpaceOnUse" x1="178.8898" y1="58.2941" x2="251.1568" y2="58.2941">
	<stop  offset="0" style="stop-color:#387EB9"/>
	<stop  offset="1" style="stop-color:#966370"/>
</linearGradient>
<polygon fill="url(#SVGID_00000062889473126850981270000001665376591208247980_)" points="236.3,13.3 236.3,23.7 216,48.9 
	194.8,22.4 194.8,13.3 179.9,13.3 179.9,19.6 178.9,20.4 179.9,21.6 179.9,103.2 194.8,103.2 194.8,40.2 211.5,61.1 213.4,59.5 
	218.6,63.6 236.3,41.5 236.3,103.2 251.2,103.2 251.2,13.3 "/>
<g>
	<g>
		<path d="M8.3,92.3c5,3.1,12.4,5.6,20.1,5.6c11.5,0,18.3-6,18.3-14.8c0-8.1-4.7-12.8-16.5-17.2c-14.2-5-23-12.5-23-24.7
			c0-13.6,11.3-23.6,28.2-23.6c8.8,0,15.4,2.1,19.2,4.2L51.5,31c-2.8-1.6-8.6-4.1-16.5-4.1c-12,0-16.5,7.1-16.5,13
			c0,8.1,5.3,12.1,17.3,16.7c14.8,5.8,22.2,12.9,22.2,25.7c0,13.4-9.8,25.1-30.5,25.1c-8.4,0-17.6-2.5-22.3-5.7L8.3,92.3z"/>
		<path d="M80.3,76.8c0.2,15.4,10,21.7,21.4,21.7c8.1,0,13.1-1.5,17.3-3.2l2,8.1c-4,1.8-10.9,4-20.9,4c-19.2,0-30.8-12.8-30.8-31.5
			c0-18.9,11.2-33.7,29.4-33.7c20.4,0,25.7,17.9,25.7,29.4c0,2.4-0.1,4.1-0.4,5.3H80.3z M113.6,68.6c0.1-7.2-2.9-18.4-15.7-18.4
			c-11.6,0-16.5,10.5-17.5,18.4H113.6z"/>
		<path d="M152.3,25.5v18h16.3v8.6h-16.3v33.7c0,7.8,2.2,12.2,8.6,12.2c2.9,0,5.1-0.4,6.6-0.8l0.5,8.6c-2.2,0.9-5.7,1.6-10.2,1.6
			c-5.2,0-9.6-1.7-12.3-4.8c-3.1-3.4-4.4-9-4.4-16.3V52.1h-9.7v-8.6h9.7V28.4L152.3,25.5z"/>
	</g>
</g>
<circle cx="187.3" cy="59.1" r="10.3"/>
<path d="M187.3,109.7c-5.7,0-10.3-4.6-10.3-10.3S181.6,89,187.3,89s10.3,4.6,10.3,10.3S193,109.7,187.3,109.7"/>
<circle cx="187.3" cy="18.9" r="10.3"/>
<rect x="184.6" y="15.9" width="5.4" height="75.1"/>
<circle cx="215.5" cy="59.1" r="10.3"/>
<path fill="#D6D6D7" d="M215.5,109.7c-5.7,0-10.3-4.6-10.3-10.3S209.8,89,215.5,89s10.3,4.6,10.3,10.3S221.2,109.7,215.5,109.7"/>
<circle fill="#D6D6D7" cx="215.5" cy="18.9" r="10.3"/>
<circle cx="243.7" cy="59.1" r="10.3"/>
<path d="M243.7,109.7c-5.7,0-10.3-4.6-10.3-10.3S238,89,243.7,89S254,93.7,254,99.4S249.4,109.7,243.7,109.7"/>
<circle cx="243.7" cy="18.9" r="10.3"/>
<rect x="241" y="13.3" width="5.4" height="77.7"/>
<circle cx="271.9" cy="59.1" r="10.3"/>
<path d="M271.9,109.7c-5.7,0-10.3-4.6-10.3-10.3S266.2,89,271.9,89s10.3,4.6,10.3,10.3S277.6,109.7,271.9,109.7"/>
<circle cx="271.9" cy="18.9" r="10.3"/>
<rect x="269.2" y="15.9" width="5.4" height="75.1"/>
<circle fill="#D6D6D7" cx="300.1" cy="59.1" r="10.3"/>
<path d="M300.1,109.7c-5.7,0-10.3-4.6-10.3-10.3S294.4,89,300.1,89s10.3,4.6,10.3,10.3S305.8,109.7,300.1,109.7"/>
<circle fill="#D6D6D7" cx="300.1" cy="18.9" r="10.3"/>
<circle fill="#D6D6D7" cx="328.3" cy="59.1" r="10.3"/>
<path d="M328.3,109.7c-5.7,0-10.3-4.6-10.3-10.3S322.6,89,328.3,89s10.3,4.6,10.3,10.3S334,109.7,328.3,109.7"/>
<circle fill="#D6D6D7" cx="328.3" cy="18.9" r="10.3"/>
</svg>
